# xmcd
#
# Track frame offsets:
#	150
#	16978
#	32903
#	47761
#	66422
#	86407
#	124829
#	142824
#	159919
#
# Disc length: 2280 seconds
#
# Revision: 0
# Processed by: cddbd v1.4PL0 Copyright (c) Steve Scherf et al.
# Submitted via: EasyCDDAExtractor 4.6.0.1
#
DISCID=6f08e609
DTITLE=장사익 - 허허바다
DYEAR=2000
DGENRE=Other
TTITLE0=파도
TTITLE1=웃은죄
TTITLE2=나그네
TTITLE3=반달
TTITLE4=사랑굿
TTITLE5=허허바다
TTITLE6=동백아가씨
TTITLE7=타향살이
TTITLE8=댄서의 순정
EXTD=
EXTT0=
EXTT1=
EXTT2=
EXTT3=
EXTT4=
EXTT5=
EXTT6=
EXTT7=
EXTT8=
PLAYORDER=
